<?xml version="1.0" standalone="no"?>
<!DOCTYPE svg PUBLIC "-//W3C//DTD SVG 20010904//EN"
 "http://www.w3.org/TR/2001/REC-SVG-20010904/DTD/svg10.dtd">
<svg version="1.0" xmlns="http://www.w3.org/2000/svg"
 width="278.000000pt" height="278.000000pt" viewBox="0 0 278.000000 278.000000"
 preserveAspectRatio="xMidYMid meet">
<metadata>
Created by potrace 1.11, written by Peter Selinger 2001-2013
</metadata>
<g transform="translate(0.000000,278.000000) scale(0.100000,-0.100000)"
fill="#000000" stroke="none">
<path d="M1181 2751 c-11 -11 -45 -24 -78 -31 -153 -31 -296 -87 -442 -173
-47 -28 -95 -52 -107 -52 -28 -2 -44 -13 -44 -31 0 -9 -40 -55 -88 -102 -159
-157 -278 -341 -337 -520 -9 -30 -25 -57 -37 -63 -17 -9 -19 -17 -14 -48 3
-21 -1 -79 -9 -131 -32 -193 -10 -478 47 -617 6 -16 11 -50 12 -78 1 -40 5
-52 21 -59 12 -5 40 -46 64 -91 74 -141 226 -325 339 -410 22 -16 46 -43 54
-60 10 -23 20 -31 47 -33 18 -2 50 -14 70 -26 81 -51 287 -134 371 -150 79
-14 127 -29 142 -43 17 -15 68 -12 68 5 0 4 57 6 127 6 112 -1 157 3 299 30
17 3 66 18 109 32 65 22 81 24 100 14 39 -21 72 0 67 41 -1 4 31 24 71 45 134
70 241 147 342 249 111 111 121 122 183 214 165 245 243 568 209 861 -11 100
-17 126 -41 211 -97 334 -299 591 -627 797 -208 131 -450 202 -709 206 -79 2
-144 8 -157 14 -28 16 -30 15 -52 -7z"/>
</g>
</svg>
